<?xml version="1.0" encoding="UTF-8"?>
<!DOCTYPE svg PUBLIC "-//W3C//DTD SVG 1.1//EN" "http://www.w3.org/Graphics/SVG/1.1/DTD/svg11.dtd">
<!-- Creator: CorelDRAW 2018 (64-Bit Evaluation Version) -->
<svg xmlns="http://www.w3.org/2000/svg" xml:space="preserve" width="123.906mm" height="124.922mm" version="1.1" style="shape-rendering:geometricPrecision; text-rendering:geometricPrecision; image-rendering:optimizeQuality; fill-rule:evenodd; clip-rule:evenodd"
viewBox="0 0 12415.87 12517.72"
 xmlns:xlink="http://www.w3.org/1999/xlink">
 <defs>
  <style type="text/css">
   <![CDATA[
    .str0 {stroke:#050357 ;stroke-width:7.64;stroke-miterlimit:22.9256}
    .fil1 {fill:none;fill-rule:nonzero}
    .fil0 {fill:white}
    .fil2 {fill:#050357 ;fill-rule:nonzero}
   ]]>
  </style>
 </defs>
 <g id="Layer_x0020_1">
  <metadata id="CorelCorpID_0Corel-Layer"/>
  <g id="_2567275074304">
   <path class="fil0" d="M1704.76 0l8981.03 0c937.64,0 1704.67,767.12 1704.67,1704.76l0 689.02c-52.81,198.72 -125.33,333.34 -211.24,408.68 -85.91,75.39 -162.62,112.04 -326.66,112.04l-9841.21 0 0 268.92c194.71,53.22 328.13,126.11 403.24,212.92 75.1,86.83 114.02,215.7 114.02,386.64l0 8212.66c0,170.87 -39.14,300.02 -114.02,386.64 -15.47,17.89 34.15,67.81 0,106.9l-709.83 -6.11c-937.59,-8.08 -1704.76,-767.11 -1704.76,-1704.76l0 -9073.56c0,-937.63 767.12,-1704.76 1704.76,-1704.76zm10685.69 5284.16l0 5494.15c0,937.63 -767.03,1705.12 -1704.67,1704.76l-5577.64 -2.17c-31.17,-38.05 -11.93,-78.43 -26.81,-95.84 -76.96,-90.01 -116.78,-218.89 -116.78,-389.41l0 -2777.74 4496.5 0c166.85,0 294.77,39.22 381.02,114.88 86.19,78.44 158.46,212.92 211.29,406.25l266.98 0 0 -2823.99 -266.98 0c-52.83,193.31 -125.11,327.81 -211.29,406.25 -86.25,75.66 -214.17,114.87 -381.02,114.87l-4496.5 0 0 -2672.66 6888 0c163.83,0 240.01,37.47 326.66,112.05 85.18,73.38 158.43,209.9 211.24,408.6z"/>
   <g>
    <path class="fil1 str0" d="M4964.55 9217.9l0 2777.74c0,170.53 234.64,496.45 116.78,496.31l-2666.75 -2.78c-113.97,-0.13 114.02,-322.67 114.02,-493.54l0 -8212.66c0,-170.94 -38.92,-299.81 -114.02,-386.64 -75.11,-86.82 -208.54,-159.71 -403.24,-212.92l0 -268.92 9841.21 0c164.03,0 175.85,-19.27 261.75,-94.66 85.92,-75.39 223.16,-228.62 275.99,-427.55l0 2891.2c-52.83,-198.93 -190.75,-317.13 -275.99,-390.56 -86.65,-74.58 -97.92,-129.42 -261.75,-129.42l-6888 0 0 2672.66 4496.5 0c166.85,0 294.77,-39.21 381.02,-114.87 86.19,-78.44 158.46,-212.93 211.29,-406.25l266.98 0 0 2823.99 -266.98 0c-52.83,-193.32 -125.11,-327.81 -211.29,-406.25 -86.25,-75.66 -214.17,-114.88 -381.02,-114.88l-4496.5 0z"/>
    <path id="1" class="fil2" d="M4964.55 9217.9l0 2777.74c0,170.53 234.64,496.45 116.78,496.31l-2666.75 -2.78c-113.97,-0.13 114.02,-322.67 114.02,-493.54l0 -8212.66c0,-170.94 -38.92,-299.81 -114.02,-386.64 -75.11,-86.82 -208.54,-159.71 -403.24,-212.92l0 -268.92 9841.21 0c164.03,0 175.85,-19.27 261.75,-94.66 85.92,-75.39 223.16,-228.62 275.99,-427.55l0 2891.2c-52.83,-198.93 -190.75,-317.13 -275.99,-390.56 -86.65,-74.58 -97.92,-129.42 -261.75,-129.42l-6888 0 0 2672.66 4496.5 0c166.85,0 294.77,-39.21 381.02,-114.87 86.19,-78.44 158.46,-212.93 211.29,-406.25l266.98 0 0 2823.99 -266.98 0c-52.83,-193.32 -125.11,-327.81 -211.29,-406.25 -86.25,-75.66 -214.17,-114.88 -381.02,-114.88l-4496.5 0z"/>
   </g>
  </g>
 </g>
</svg>
