<?xml version="1.0" encoding="UTF-8"?>
<!DOCTYPE svg PUBLIC "-//W3C//DTD SVG 1.1//EN" "http://www.w3.org/Graphics/SVG/1.1/DTD/svg11.dtd">
<!-- Creator: CorelDRAW 2018 (64-Bit Evaluation Version) -->
<svg xmlns="http://www.w3.org/2000/svg" xml:space="preserve" width="92.5267mm" height="23.6961mm" version="1.1" style="shape-rendering:geometricPrecision; text-rendering:geometricPrecision; image-rendering:optimizeQuality; fill-rule:evenodd; clip-rule:evenodd"
viewBox="0 0 53000 12687.62"
 xmlns:xlink="http://www.w3.org/1999/xlink">
 <defs>
  <style type="text/css">
   <![CDATA[
    .fil0 {fill:#2B2A29}
    .fil2 {fill:#528D2F}
    .fil1 {fill:#528D2F;fill-rule:nonzero}
   ]]>
  </style>
 </defs>
 <g id="Layer_x0020_1">
  <metadata id="CorelCorpID_0Corel-Layer"/>
  <g id="_2248850458368">
   <path class="fil0" d="M15611.34 8938.21l-8.35 -1114.45 -2051.45 0c-228.04,0 -422.35,-194.09 -422.35,-421.97l0 -4162.17 -1114.34 0 0 4179.09c0,835.65 683.74,1519.5 1519.71,1519.5l2076.77 0zm8645.17 -2287.9l1646.13 0 337.8 -1122.85 -1983.93 0 0 -742.8c0,-236.5 194.15,-422.19 422.03,-422.19l2093.8 0 337.7 -1122.85 -2448.31 0c-835.86,0 -1519.71,683.8 -1519.71,1519.66l0 2659.43c0,835.65 683.85,1519.5 1519.71,1519.5l2448.31 0 0 -1114.45 -2431.5 0c-227.88,0 -422.03,-194.09 -422.03,-421.97l0 -57.99 0 -693.49zm4769.99 -1257.89l830.99 1365.24 232.81 382.35 861.08 0 1063.63 -1747.59 0 3545.78 1114.55 0 0 -5698.59 -1114.55 0c-497.9,818.99 -996.22,1637.83 -1494.28,2456.77l-1494.23 -2456.77 -1114.39 0c0,1899.6 0,3798.99 0,5698.59l1114.39 0c0,-1181.91 0,-2363.87 0,-3545.78zm-11878.64 3545.78l0 -5698.59 -1114.45 0 0 5698.59 1114.45 0zm5192.12 -312.42l0 -5386.16 -1122.74 0 0 3545.84 -2152.91 -3545.84 -1114.39 0 0 5698.59 1114.39 0 0 -3545.78 0 0 2152.91 3545.78 0 0 0 0 0 0 1122.74 0 0 -312.42zm16234.9 -3866.51c0,-835.86 -683.74,-1519.66 -1519.66,-1519.66l-1604.1 0c-835.75,0 -1519.66,683.8 -1519.66,1519.66l0 4178.93 1114.5 0 0 -4153.55c0,-236.5 194.2,-422.19 422.03,-422.19l1561.96 0c236.5,0 422.08,185.69 422.08,422.19l0 1316.89 -1646.34 0 -337.7 1122.96 1984.04 0 0 1713.7 1122.85 0 0 -4178.93zm5445.38 945.62l0 25.22 0 0c0,-8.46 0,-16.97 0,-25.22zm0 -971.06l0 25.43c0,-8.51 0,-16.92 0,-25.43zm177.28 4204.36l-1072.09 -1848.95c523.33,-236.23 886.41,-759.72 894.81,-1359.14 0,-8.46 0,-16.97 0,-25.22l0 -945.62c0,-8.51 0,-16.92 0,-25.43 -16.81,-827.35 -692.15,-1494.23 -1519.5,-1494.23l-3123.76 0 0 5698.59 1114.34 0 0 -4575.74 1983.98 0c236.39,0 422.08,185.69 422.08,422.19l0 894.87c0,236.23 -185.69,422.03 -422.08,422.03l-1207.24 0 -337.75 1122.96 987.71 0 987.76 1713.7 1291.73 0zm675.34 -5698.59l0 5698.59 1114.45 0 0 -5698.59 -1114.45 0zm4668.74 0l-1401.38 0 -2152.91 2853.42 2152.91 2845.17 1401.38 0 -2152.75 -2845.17 2152.75 -2853.42z"/>
   <path class="fil1" d="M14258.57 10545.04l-1637.35 0 0 1652.39 1637.35 0 0 -560.97 606.32 126.47 0 308.14c0,238.32 -44.6,400.82 -134.77,486.87 -89.15,86.58 -259.31,129.52 -511.18,129.52l-1558.05 0c-253.42,0 -424.6,-42.94 -512.89,-129.52 -88.51,-86.04 -133.16,-248.55 -133.16,-486.87l0 -1375.41c0,-235.86 44.65,-398.15 133.16,-485.05 88.29,-86.74 259.47,-130.43 512.89,-130.43l1558.05 0c251.87,0 422.03,43.69 511.18,130.43 90.17,86.9 134.77,249.19 134.77,485.05l0 247.58 -606.32 96.97 0 -495.17zm4479.2 -15.26l-1363.74 0 0 727.65 1363.74 0c105.27,0 176.75,-15.1 215.4,-45.46 38.82,-31.05 58.2,-84.97 58.2,-162.45l0 -314.19c0,-75.76 -19.38,-128.88 -58.2,-160.09 -38.66,-30.2 -110.14,-45.46 -215.4,-45.46zm-1960 2157.68l0 -2607.28 2228.68 0c207.91,0 358.68,39.46 451.31,119.45 93.43,79.3 139.85,207.27 139.85,384.97l0 613.12c0,175.89 -46.42,304.02 -139.85,384.06 -92.63,79.89 -243.41,120.36 -451.31,120.36l-340.37 0 1205.25 985.3 -870.82 0 -1051.21 -985.3 -575.27 0 0 985.3 -596.26 0zm4656.96 -1991.8c0,-236.66 44.49,-398.15 133,-485.05 88.35,-86.74 259.52,-130.43 513,-130.43l1919.25 0c254.49,0 426.42,43.69 514.76,130.43 89.26,86.9 133.8,248.39 133.8,485.05l0 1375.41c0,238.32 -44.55,400.82 -133.8,486.87 -88.35,86.58 -260.27,129.52 -514.76,129.52l-1919.25 0c-253.47,0 -424.65,-42.94 -513,-129.52 -88.51,-86.04 -133,-248.55 -133,-486.87l0 -1375.41zm606.27 1501.78l2001.17 0 0 -1652.39 -2001.17 0 0 1652.39zm6506.39 -1667.65l-1363.63 0 0 692.42 1363.63 0c105.32,0 176.8,-15.31 215.46,-45.51 38.82,-30.31 58.2,-85.13 58.2,-162.56l0 -278.8c0,-75.76 -19.38,-128.88 -58.2,-160.09 -38.66,-30.2 -110.14,-45.46 -215.46,-45.46zm-1959.84 2157.68l0 -2607.28 2228.52 0c207.96,0 358.68,39.46 451.53,119.45 93.38,79.3 139.8,207.27 139.8,384.97l0 582.76c0,176.85 -46.42,304.82 -139.8,384.92 -92.84,79.99 -243.57,119.51 -451.53,119.51l-1632.31 0 0 1015.66 -596.2 0zm8560.41 -2142.42l-1637.29 0 0 1652.39 1637.29 0 0 -560.97 606.54 126.47 0 308.14c0,238.32 -44.76,400.82 -134.77,486.87 -89.31,86.58 -259.52,129.52 -511.34,129.52l-1558 0c-253.58,0 -424.6,-42.94 -512.94,-129.52 -88.61,-86.04 -133.16,-248.55 -133.16,-486.87l0 -1375.41c0,-235.86 44.55,-398.15 133.16,-485.05 88.35,-86.74 259.36,-130.43 512.94,-130.43l1558 0c251.81,0 422.03,43.69 511.34,130.43 90.01,86.9 134.77,249.19 134.77,485.05l0 247.58 -606.54 96.97 0 -495.17zm3097.89 1101.65l1143.68 0 -563.27 -1061.17 -580.41 1061.17zm-1167.35 1040.77l1476.5 -2607.28 585.33 0 1495.83 2607.28 -681.39 0 -313.28 -570.98 -1654.16 0 -304.12 570.98 -604.72 0zm7016.77 -2157.68l-1363.63 0 0 727.65 1363.63 0c105.27,0 176.75,-15.1 215.56,-45.46 38.66,-31.05 58.04,-84.97 58.04,-162.45l0 -314.19c0,-75.76 -19.38,-128.88 -58.04,-160.09 -38.82,-30.2 -110.3,-45.46 -215.56,-45.46zm-1959.89 2157.68l0 -2607.28 2228.57 0c208.12,0 358.85,39.46 451.37,119.45 93.65,79.3 139.91,207.27 139.91,384.97l0 613.12c0,175.89 -46.26,304.02 -139.91,384.06 -92.52,79.89 -243.25,120.36 -451.37,120.36l-340.27 0 1205.15 985.3 -870.82 0 -1050.94 -985.3 -575.43 0 0 985.3 -596.26 0zm4712.33 0l0 -2607.28 2668.32 0 0 444.62 -2061.84 0 0 581.1 1202.68 0 0 444.57 -1202.68 0 0 646.96 2087.11 0 0 490.03 -2693.59 0z"/>
   <path class="fil2" d="M4225.35 960.24c-628.7,136.16 -985.41,669.02 -1278.93,1354.16 742.54,-679.14 1639.92,-953.76 2748.2,-677.05 -1334.24,-77.85 -2249.77,297.65 -2722.4,1152.09 -1913.25,1041.14 -2995.41,2612.53 -2971.8,4717.79 38.12,3389.06 2628,5261.57 5184.52,5177.67 2587.31,-84.92 4843.67,-2239.12 4814.81,-4779.63 -31.16,-2771.01 -2024.62,-4606.2 -4609.04,-4651.02 -1518.05,-26.34 -3097.09,1048.05 -3710.7,2420.68 943.48,-1449.95 2353.91,-2168.12 3662.13,-2113.13 2407.35,101.3 4009.52,1892.59 4108.84,3954.16 125.24,2594.22 -1929.58,4519.94 -4248.37,4567.12 -2824.13,57.4 -4730.48,-2103.12 -4788.3,-4522.94 -47.71,-2005.62 899.04,-3683.66 2867.71,-4752.86 759.72,-412.6 1728.1,-20.45 2465.71,-364.47 520.28,-242.66 968.7,-622.06 1283.37,-1252.43 -974.97,197.79 -1961.5,-412.82 -2805.76,-230.13z"/>
   <path class="fil2" d="M2862.41 1885.14c13.55,-523.28 -678.55,-1256.82 -646.16,-1885.14 -382.57,332.66 -656.6,735.36 -681.55,1274.59 -21.36,461.59 464.7,1250.77 159.29,1902.76 582.33,-481.41 772.04,-1188.17 469.25,-2177.22 335.23,605.09 378.55,1259.71 17.56,1982.59 344.5,-221.29 665.22,-469.09 681.6,-1097.58z"/>
   <path class="fil0" d="M7771.62 10240.54l-8.94 -1178.8 -2169.73 0c-241.05,0 -446.5,-205.34 -446.5,-446.44l0 -4402.04 -1178.59 0 0 4419.98c0,883.84 723.26,1607.31 1607.2,1607.31l2196.55 0z"/>
   <path class="fil2" d="M5058.21 12055.65c1469.65,308.73 2789.59,-487.4 3631.67,-1842.63 -1386.71,1080.28 -2963.5,1117.34 -4248.32,86.1 -146.44,-117.47 -257.76,-164.22 -329.83,-82.88 -83.1,93.81 -42.78,231.79 128.56,408.91 258.08,266.54 538.64,474.34 848.82,647.66 -821.83,-94.88 -1553.55,-533.88 -2139.31,-1769.22 -56.33,-118.49 -152.6,-211.23 -266.97,-144.67 -97.02,56.76 -90.65,178.19 -46.21,327.42 422.24,1417.07 1353.94,2145.26 2421.59,2369.33z"/>
   <!-- Registered Trademark Symbol - Moved even further right -->
   <g id="registered_mark">
     <circle cx="51200" cy="4500" r="1400" fill="none" stroke="#2B2A29" stroke-width="150"/>
     <text x="51200" y="4950" text-anchor="middle" font-family="Arial, sans-serif" font-size="1800" font-weight="900" fill="#2B2A29">R</text>
   </g>
  </g>
 </g>
</svg>